<svg xmlns="http://www.w3.org/2000/svg" fill="#FFFFFF" width="512" height="512"><path d="M139.474 417.072l-14.246-7.272s-6.995-2.674-2.993-11.077 51.914-126.409 51.914-126.409 10.315-8.652 12.209-13.6 20.457-57.038 20.457-57.038 11.066-33.108 10.874-43.465S220 144 153.071 138.955C150.039 122.38 150.986 102.54 164 89c8.336 1.31 214.661 27.09 247 149-103.113-72.69-156-76.431-156-76.431s-4.443-1.692-7.544 7.209-37.141 96.855-37.141 96.855c.111-.156-5.321 8.271-2.313 20.367 2.146 7.362-42 132.677-42 132.677s-.477 9.007-13.354 3.561-13.174-5.166-13.174-5.166z" fill-rule="evenodd"/></svg>